<?xml version="1.0" encoding="UTF-8" standalone="no" ?>
<!DOCTYPE svg PUBLIC "-//W3C//DTD SVG 1.1//EN" "http://www.w3.org/Graphics/SVG/1.1/DTD/svg11.dtd">
<svg xmlns="http://www.w3.org/2000/svg" xmlns:xlink="http://www.w3.org/1999/xlink" version="1.1" width="1080" height="1080" viewBox="0 0 1080 1080" xml:space="preserve">
<g transform="matrix(1.5 0 0 0.6 540 540)">
  <g vector-effect="non-scaling-stroke">
    <g transform="matrix(0.13 0 0 -0.13 -0.65 -211.65)">
      <path style="fill: rgb(72,149,247);" transform="translate(-5428.85, -6911.55)" d="M 4808 9745 C 4293 9673 3857 9332 3674 8860 C 3602 8672 3590 8592 3580 8245 C 3569 7850 3569 6037 3580 5610 C 3587 5345 3592 5268 3608 5192 C 3670 4909 3786 4694 3990 4489 C 4156 4321 4321 4218 4532 4151 C 4733 4087 4918 4071 5465 4067 C 5764 4065 5845 4068 5844 4078 C 5843 4084 5842 4259 5842 4465 L 5840 4840 L 5368 4837 C 4937 4835 4889 4837 4830 4853 C 4645 4905 4490 5030 4411 5190 C 4332 5352 4337 5241 4337 6925 C 4337 8418 4337 8425 4358 8503 C 4422 8737 4595 8911 4830 8977 C 4889 8993 4944 8995 5435 8995 C 5929 8995 5981 8993 6040 8977 C 6262 8914 6429 8754 6501 8535 C 6524 8465 6524 8465 6530 7695 C 6534 7272 6537 6924 6538 6923 C 6539 6921 6700 6920 6895 6920 L 7250 6920 L 7250 6968 C 7250 6994 7257 7168 7264 7355 C 7296 8102 7293 8446 7255 8649 C 7203 8919 7067 9166 6861 9362 C 6666 9548 6436 9668 6152 9732 C 6060 9752 6028 9753 5480 9756 C 5038 9758 4883 9756 4808 9745 z" stroke-linecap="round" />
    </g>
    <g transform="matrix(0.13 0 0 -0.13 0.21 212.12)">
      <path style="fill: rgb(72,149,247);" transform="translate(-5435.33, -3733.28)" d="M 5305 6569 C 5162 6563 5039 6557 5032 6555 C 5022 6551 5020 6472 5022 6183 L 5025 5815 L 5500 5815 C 5928 5815 5981 5813 6040 5797 C 6226 5745 6383 5618 6459 5460 C 6535 5301 6531 5402 6531 3735 C 6531 2067 6535 2166 6459 2010 C 6403 1896 6290 1782 6180 1728 C 6031 1654 6037 1655 5450 1655 C 4938 1656 4923 1656 4845 1678 C 4710 1716 4606 1774 4520 1860 C 4433 1946 4389 2022 4360 2136 C 4341 2209 4340 2249 4340 2956 L 4340 3698 L 3968 3702 C 3763 3704 3594 3705 3593 3704 C 3591 3704 3585 3461 3580 3164 C 3568 2541 3577 2164 3609 2015 C 3737 1410 4228 971 4855 900 C 4922 892 5136 890 5505 893 C 6114 897 6130 899 6337 971 C 6748 1115 7078 1448 7216 1856 C 7283 2055 7281 2036 7292 2921 C 7297 3420 7297 4038 7292 4541 C 7283 5321 7281 5359 7260 5455 C 7132 6042 6665 6477 6075 6559 C 5959 6575 5605 6580 5305 6569 z" stroke-linecap="round" />
    </g>
  </g>
</g>
</svg>
